<?xml version="1.0" standalone="no"?>
<!DOCTYPE svg PUBLIC "-//W3C//DTD SVG 20010904//EN"
 "http://www.w3.org/TR/2001/REC-SVG-20010904/DTD/svg10.dtd">
<svg version="1.0" xmlns="http://www.w3.org/2000/svg"
 width="180.000000pt" height="84.000000pt" viewBox="0 0 180.000000 84.000000"
 preserveAspectRatio="xMidYMid meet">
<metadata>
Created by potrace 1.10, written by Peter Selinger 2001-2011
</metadata>
<g transform="translate(0.000000,84.000000) scale(0.100000,-0.100000)"
fill="#001880" stroke="none">
<path d="M884 675 c-8 -19 12 -36 33 -28 19 7 12 37 -10 41 -9 2 -20 -4 -23
-13z"/>
<path d="M296 660 c-167 -78 -207 -286 -79 -413 129 -130 335 -88 412 83 27
59 30 187 4 197 -10 4 -23 -2 -35 -18 -38 -47 -218 -229 -228 -229 -5 0 -31
23 -57 51 -42 45 -49 58 -55 108 -13 104 7 116 65 40 20 -27 42 -49 47 -49 6
0 47 36 92 80 45 44 87 80 95 80 19 0 16 24 -4 42 -56 47 -185 62 -257 28z"/>
<path d="M754 662 c-12 -9 -24 -25 -27 -35 -10 -27 13 -65 43 -72 36 -8 69
-42 48 -50 -8 -3 -29 -4 -48 -3 -26 2 -35 -1 -38 -14 -3 -15 4 -18 51 -18 63
0 80 13 75 61 -2 26 -11 36 -40 52 -24 12 -38 26 -38 38 0 22 1 23 35 7 37
-17 54 3 26 31 -25 25 -59 27 -87 3z"/>
<path d="M1248 650 c-1 -5 -2 -48 0 -95 3 -76 5 -85 23 -85 17 0 19 7 19 64 0
35 3 78 6 95 6 28 4 31 -19 31 -14 0 -27 -4 -29 -10z"/>
<path d="M1119 611 c-26 -22 -31 -128 -6 -135 52 -16 51 -15 33 -35 -17 -18
-17 -20 2 -30 48 -25 62 3 62 125 l0 82 -36 4 c-24 3 -43 -1 -55 -11z m49 -81
c-4 -35 -32 -32 -36 3 -2 16 -1 36 3 45 6 15 8 15 21 -3 8 -11 14 -31 12 -45z"/>
<path d="M1350 608 c-29 -32 -41 -79 -24 -99 8 -8 14 -21 14 -27 0 -13 40 -25
67 -20 10 2 19 11 21 21 3 13 -3 17 -27 17 -21 0 -31 5 -31 15 0 11 12 15 45
15 37 0 45 3 45 19 0 23 -52 81 -74 81 -8 0 -25 -10 -36 -22z m50 -33 c0 -8
-7 -15 -15 -15 -8 0 -15 7 -15 15 0 8 7 15 15 15 8 0 15 -7 15 -15z"/>
<path d="M890 546 c0 -70 2 -76 20 -76 19 0 21 5 18 72 -2 60 -6 73 -20 76
-16 3 -18 -6 -18 -72z"/>
<path d="M954 606 c-3 -8 -6 -41 -7 -73 -2 -48 1 -58 16 -61 14 -3 17 5 17 52
0 30 5 58 12 62 18 11 38 -26 38 -73 0 -36 3 -43 20 -43 16 0 20 7 22 33 4 82
-18 116 -75 117 -24 0 -40 -5 -43 -14z"/>
<path d="M885 411 c-9 -16 3 -31 26 -31 14 0 19 6 17 17 -4 20 -33 29 -43 14z"/>
<path d="M758 389 c-45 -33 -37 -91 14 -104 15 -4 34 -15 44 -26 16 -17 16
-19 0 -25 -10 -4 -28 -2 -40 4 -28 12 -49 1 -44 -24 4 -26 70 -31 104 -9 49
32 24 104 -41 116 -21 5 -28 19 -17 37 7 10 15 10 36 2 40 -15 52 -2 25 26
-27 29 -45 30 -81 3z"/>
<path d="M1365 333 c-32 -35 -33 -83 -3 -118 21 -25 52 -32 75 -17 38 24 37
121 0 147 -30 21 -43 19 -72 -12z m65 -58 c0 -41 -18 -55 -37 -30 -17 25 -17
40 3 59 21 22 34 11 34 -29z"/>
<path d="M1530 353 c-38 -7 -42 -16 -42 -81 0 -72 6 -86 32 -72 14 8 17 18 13
48 -4 28 -1 43 12 55 25 26 35 12 35 -48 0 -56 7 -69 34 -59 32 12 13 134 -24
154 -10 6 -22 9 -27 9 -4 -1 -19 -4 -33 -6z"/>
<path d="M887 343 c-7 -16 8 -143 18 -144 15 0 25 60 18 109 -5 38 -25 57 -36
35z"/>
<path d="M962 338 c-18 -18 -16 -127 3 -133 51 -16 49 -14 29 -36 -16 -17 -16
-22 -4 -29 21 -13 47 -12 56 2 14 22 22 192 10 200 -18 12 -81 9 -94 -4z m56
-78 c-4 -35 -32 -32 -36 3 -2 16 -1 36 3 45 6 15 8 15 21 -3 8 -11 14 -31 12
-45z"/>
<path d="M1095 327 c-4 -13 -5 -45 -3 -73 2 -37 7 -50 21 -52 14 -3 17 5 17
52 0 60 15 80 37 50 9 -12 12 -32 9 -55 -7 -44 14 -70 39 -49 12 10 14 24 9
63 -9 63 -32 87 -84 87 -33 0 -41 -4 -45 -23z"/>
<path d="M1253 314 c-8 -23 12 -38 41 -30 29 7 35 31 10 40 -26 10 -44 7 -51
-10z"/>
</g>
</svg>
